{"title":"Jolly LLB (2013) Hindi DVDScr MPEG - Exclusive","uid":8269621,"size":716224695,"categoryP":"video","categoryS":"movies","magnet":"?xt=urn:btih:798a1de2dd0c673baac5960c51c20458bf9e853e&amp;dn=Jolly+LLB+%282013%29+Hindi+DVDScr+MPEG+-+Exclusive&amp;tr=udp%3A%2F%2Ftracker.openbittorrent.com%3A80&amp;tr=udp%3A%2F%2Fopen.demonii.com%3A1337&amp;tr=udp%3A%2F%2Ftracker.coppersurfer.tk%3A6969&amp;tr=udp%3A%2F%2Fexodus.desync.com%3A6969","seeders":1,"leechers":0,"uploader":"tykoon123","files":-1,"time":1363581925,"description":" &lt;a href=&quot;http://imgr.us/images/664gm67ol2ek0rkmwli.jpg&quot; rel=&quot;nofollow&quot; target=&quot;_NEW&quot;&gt;http://imgr.us/images/664gm67ol2ek0rkmwli.jpg&lt;/a&gt;\n\nInfo:\nFormat : MPEG-PS\nFile size : 683 MiB\nDuration : 2h 7mn\nOverall bit rate : 750 Kbps\n\nVideo\nID : 224 (0xE0)\nFormat : MPEG Video\nFormat version : Version 2\nFormat profile : Main@Main\nFormat settings, BVOP : Yes\nFormat settings, Matrix : Default\nDuration : 2h 7mn\nBit rate mode : Variable\nBit rate : 607 Kbps\nMaximum bit rate : 9 672 Kbps\nWidth : 352 pixels\nHeight : 288 pixels\nDisplay aspect ratio : 4:3\nFrame rate : 25.000 fps\nStandard : PAL\nColor space : YUV\nChroma subsampling : 4:2:0\nBit depth : 8 bits\nScan type : Progressive\nCompression mode : Lossy\nBits/(Pixel*Frame) : 0.239\nStream size : 553 MiB (81%)\n\n\n\nAudio\nID : 192 (0xC0)\nFormat : MPEG Audio\nFormat version : Version 1\nFormat profile : Layer 2\nDuration : 2h 7mn\nBit rate mode : Constant\nBit rate : 128 Kbps\nChannel(s) : 2 channels\nSampling rate : 48.0 KHz\nCompression mode : Lossy\nDelay relative to video : 33ms\nStream size : 117 MiB (17%)\n\n\n\nScreens: &lt;a href=&quot;\nhttp://imgr.us/images/ozfq26jdhnvv3cs4vlx.png&quot; rel=&quot;nofollow&quot; target=&quot;_NEW&quot;&gt;\nhttp://imgr.us/images/ozfq26jdhnvv3cs4vlx.png&lt;/a&gt; &lt;a href=&quot;\nhttp://imgr.us/images/0y93gzs5wq467oeqcqh7.png&quot; rel=&quot;nofollow&quot; target=&quot;_NEW&quot;&gt;\nhttp://imgr.us/images/0y93gzs5wq467oeqcqh7.png&lt;/a&gt; &lt;a href=&quot;\nhttp://imgr.us/images/9lwhte3afcylgtdoc19q.png&quot; rel=&quot;nofollow&quot; target=&quot;_NEW&quot;&gt;\nhttp://imgr.us/images/9lwhte3afcylgtdoc19q.png&lt;/a&gt; &lt;a href=&quot;\nhttp://imgr.us/images/lfjh0tg7a3yj6lx9lqls.png&quot; rel=&quot;nofollow&quot; target=&quot;_NEW&quot;&gt;\nhttp://imgr.us/images/lfjh0tg7a3yj6lx9lqls.png&lt;/a&gt;","torrent":{"xt":"urn:btih:798a1de2dd0c673baac5960c51c20458bf9e853e","amp;dn":"Jolly+LLB+%282013%29+Hindi+DVDScr+MPEG+-+Exclusive","amp;tr":["udp%3A%2F%2Ftracker.openbittorrent.com%3A80","udp%3A%2F%2Fopen.demonii.com%3A1337","udp%3A%2F%2Ftracker.coppersurfer.tk%3A6969","udp%3A%2F%2Fexodus.desync.com%3A6969"],"infoHash":"798a1de2dd0c673baac5960c51c20458bf9e853e","infoHashBuffer":{"type":"Buffer","data":[121,138,29,226,221,12,103,59,170,197,150,12,81,194,4,88,191,158,133,62]},"announce":[],"urlList":[]}}